<?xml version="1.0" encoding="UTF-8"?>
<svg width="41px" height="31px" viewBox="0 0 41 31" version="1.1" xmlns="http://www.w3.org/2000/svg" xmlns:xlink="http://www.w3.org/1999/xlink">
    <!-- Generator: Sketch 57.1 (83088) - https://sketch.com -->
    <title>Group</title>
    <desc>Created with Sketch.</desc>
    <g id="ðŸ˜€-í•™ìƒ" stroke="none" stroke-width="1" fill="none" fill-rule="evenodd">
        <g id="Artboard" transform="translate(-35.000000, -40.000000)" fill="#FFFFFF">
            <g id="Group" transform="translate(35.000000, 40.000000)">
                <path d="M36.3238887,2.6241678 C35.5163742,1.6705861 34.6197528,0.791955172 33.646646,0.000643142006 L30.9469373,2.64568832 C31.9382188,3.41770609 32.8368596,4.29806855 33.6246849,5.26946035 C35.8680052,8.0354657 37.2131897,11.5311899 37.2131897,15.3311697 C37.2131897,19.1309021 35.8680052,22.6266263 33.6246849,25.3926316 L30.3012286,22.1358595 C31.4621412,20.5636246 32.2027625,18.7351224 32.4455975,16.788381 C32.7199858,14.5814145 32.3486654,12.3957211 31.3929761,10.4383432 L28.4633062,13.3126932 C28.7371897,14.2838376 28.8169567,15.3076703 28.6869567,16.338429 C28.5473645,17.4570014 28.165947,18.5181857 27.575015,19.4645939 L23.3569567,15.3311697 L20.6792091,12.7073976 L17.710413,9.79767479 C17.3454033,10.0151063 16.9950344,10.2609844 16.6638499,10.5375355 C16.0100635,11.0832167 15.4617917,11.7174537 15.0266072,12.4152628 L19.1588402,16.4648311 L20.6792091,17.9549417 L30.9469373,28.0164037 L33.6463936,30.6616962 C34.6195004,29.8701368 35.5161218,28.9915059 36.3238887,28.0379242 C39.2434616,24.5896936 40.9995975,20.1616609 40.9995975,15.3311697 C40.9995975,10.5004311 39.2434616,6.07215104 36.3238887,2.6241678" id="Fill-1"></path>
                <path d="M23.5044444,22.7598061 L26.46,25.5797365 C24.7748148,26.4207683 22.8744444,26.8783886 20.8911111,26.8783886 C20.5644444,26.8783886 20.2377778,26.8660205 19.9085185,26.8388106 C16.6911111,26.593922 13.7666667,25.169115 11.6744444,22.826594 C9.58222222,20.4840729 8.57111111,17.5033571 8.82777778,14.4335908 C9.00666667,12.2988541 9.78703704,10.297693 11.072963,8.60573477 L7.57555556,5.2688172 C5.27074074,8.03432783 3.88888889,11.5320309 3.88888889,15.331516 C3.88888889,19.1310011 5.27074074,22.6262305 7.57555556,25.3917411 C8.38444444,26.363875 9.30740741,27.2444848 10.3237037,28.0162552 L7.55222222,30.6605583 C6.55148148,29.8689989 5.63111111,28.9908627 4.80148148,28.0385178 C1.80444444,24.5902872 1.15463195e-13,20.1625019 1.15463195e-13,15.331516 C1.15463195e-13,10.5005301 1.80444444,6.07274471 4.80148148,2.62451411 C5.63111111,1.66969559 6.55148148,0.791559392 7.55222222,4.61852778e-14 L10.3237037,2.64677672 L13.8288889,5.98864153 C16.1466667,4.39810187 18.9518519,3.64612045 21.8322222,3.86379928 C24.0255556,4.03200565 26.1074074,4.75677722 27.8859259,5.96885254 C27.5462963,6.29289717 25.5137037,8.23221768 25.0807407,8.64778636 C24.0022222,8.02938058 22.7914815,7.65833712 21.5211111,7.56186582 C19.7866667,7.42829017 18.0911111,7.816649 16.6314815,8.66510172 C16.2581481,8.88030693 15.8977778,9.12766924 15.5581481,9.40471503 C14.8866667,9.94891211 14.3240741,10.5846332 13.8755556,11.282195 C13.2144444,12.3136958 12.81,13.4886668 12.7062963,14.7304256 C12.53,16.8107426 13.217037,18.8316927 14.6351852,20.4197587 C16.0533333,22.0078247 18.0366667,22.9750114 20.217037,23.1407441 C21.3603704,23.2273209 22.4751852,23.0912716 23.5044444,22.7598061" id="Fill-4"></path>
            </g>
        </g>
    </g>
</svg>