<?xml version="1.0" encoding="utf-8"?>
<!-- Generator: Adobe Illustrator 22.1.0, SVG Export Plug-In . SVG Version: 6.00 Build 0)  -->
<svg version="1.1" id="레이어_1" xmlns="http://www.w3.org/2000/svg" xmlns:xlink="http://www.w3.org/1999/xlink" x="0px"
	 y="0px" viewBox="0 0 126.2 30" style="enable-background:new 0 0 126.2 30;" xml:space="preserve">
<style type="text/css">
	.st0{fill:#FFFFFF;}
</style>
<g>
	<path class="st0" d="M44.7,21.2V9.8h-2.6V8.6h4.1V20h2.7v1.2H44.7z"/>
	<path class="st0" d="M59.2,20.7c-1.2,0.5-2.3,0.8-3.3,0.8c-0.8,0-1.5-0.2-2.1-0.6s-1.1-0.9-1.5-1.7c-0.4-0.7-0.6-1.5-0.6-2.3
		s0.2-1.6,0.5-2.3c0.4-0.7,0.8-1.3,1.5-1.7c0.6-0.4,1.3-0.6,2.1-0.6c1,0,1.9,0.4,2.5,1.1c0.6,0.7,0.9,1.9,0.9,3.4v0.3h-6
		c0,0.6,0.1,1.2,0.4,1.7c0.3,0.5,0.6,0.9,1,1.1c0.4,0.3,0.9,0.4,1.4,0.4c0.9,0,2-0.3,3.1-0.9L59.2,20.7L59.2,20.7z M53.4,16h4.4
		v-0.2c0-0.7-0.2-1.3-0.5-1.7s-0.8-0.6-1.4-0.6c-0.6,0-1.1,0.2-1.5,0.6C53.9,14.6,53.6,15.2,53.4,16z"/>
	<path class="st0" d="M63.6,21.2v-6.8h-1.9v-1.2h1.9v-0.4c0-1.1,0.1-2,0.4-2.6s0.7-1,1.2-1.4s1.3-0.5,2.2-0.5c0.7,0,1.4,0.1,2.1,0.2
		V10c-0.8-0.2-1.4-0.4-2-0.4c-0.5,0-0.9,0.1-1.2,0.3c-0.4,0.2-0.6,0.5-0.8,0.8c-0.2,0.4-0.3,1-0.3,2v0.6h3.5v1.2H65v6.8h-1.4V21.2z"
		/>
	<path class="st0" d="M78.4,20.9c-0.7,0.3-1.2,0.5-1.5,0.5c-0.3,0.1-0.6,0.1-0.9,0.1c-0.6,0-1.2-0.1-1.7-0.4c-0.5-0.2-0.9-0.6-1.1-1
		c-0.3-0.5-0.4-1.2-0.4-2.1v-3.5h-2.2v-1.2h2.2V9.7h1.5v3.5h3.9v1.2h-3.9v3.5c0,0.7,0.1,1.2,0.2,1.5c0.2,0.3,0.4,0.5,0.7,0.6
		c0.3,0.1,0.6,0.2,1,0.2c0.7,0,1.4-0.2,2.2-0.7C78.4,19.5,78.4,20.9,78.4,20.9z"/>
	<path class="st0" d="M94.7,21.2v-3.4h-5.2v-1.2l5.2-7.5h1.5v7.5h2.2v1.2h-2.2v3.4H94.7z M94.7,16.6v-5.3l-3.6,5.3H94.7z"/>
	<path class="st0" d="M100.2,14.9V9.1h6.8v1.4h-5.3v3h0.2c1.7,0,3.1,0.4,4,1.1c0.9,0.7,1.4,1.7,1.4,2.9c0,0.8-0.2,1.5-0.6,2.1
		s-0.9,1.1-1.6,1.5s-1.4,0.5-2.2,0.5s-1.8-0.2-3-0.6v-1.6c0.4,0.2,0.9,0.4,1.5,0.6s1.1,0.2,1.5,0.2c0.5,0,0.9-0.1,1.4-0.3
		c0.4-0.2,0.8-0.5,1-1c0.2-0.4,0.4-0.9,0.4-1.3c0-0.8-0.3-1.4-1-1.9s-1.9-0.8-3.6-0.8C101.1,14.9,100.2,14.9,100.2,14.9z"/>
</g>
<path class="st0" d="M17.5,14l-5.6-4.7l1.9-0.1c0.7,0,1.3-0.6,1.3-1.4c0-0.7-0.6-1.3-1.4-1.3L7.5,6.8v6c0,0.4,0.1,0.7,0.4,0.9
	c0.2,0.2,0.6,0.4,0.9,0.4c0.7,0,1.3-0.6,1.3-1.3v-1.7l5.3,4.5v6.2v0.3c0,0.7,0.6,1.2,1.2,1.2c0.7,0,1.2-0.5,1.2-1.2v-0.3v-5.1V15
	C17.9,14.6,17.8,14.3,17.5,14z"/>
</svg>
