<?xml version="1.0" encoding="utf-8"?>
<!-- Generator: Adobe Illustrator 22.1.0, SVG Export Plug-In . SVG Version: 6.00 Build 0)  -->
<svg version="1.1" id="레이어_1" xmlns="http://www.w3.org/2000/svg" xmlns:xlink="http://www.w3.org/1999/xlink" x="0px"
	 y="0px" viewBox="0 0 126.2 30" style="enable-background:new 0 0 126.2 30;" xml:space="preserve">
<style type="text/css">
	.st0{fill:#FFFFFF;}
</style>
<path class="st0" d="M16.6,11.5h-6l1.3-1.4c0.5-0.5,0.5-1.4-0.1-1.9c-0.5-0.5-1.4-0.5-1.9,0.1l-4.2,4.5l4.3,4.3
	c0.3,0.3,0.6,0.4,0.9,0.4s0.7-0.1,0.9-0.4c0.5-0.5,0.5-1.4,0-1.9L10.7,14h5.9c0.3,0,0.5,0.2,0.5,0.5v6.4c0,0.7,0.6,1.2,1.2,1.2
	s1.2-0.6,1.2-1.2v-6.4C19.6,12.8,18.2,11.5,16.6,11.5z"/>
<g>
	<path class="st0" d="M44.6,21.3V9.9H42V8.7h4.1v11.4h2.7v1.2H44.6z"/>
	<path class="st0" d="M59.2,20.7c-1.2,0.5-2.3,0.8-3.3,0.8c-0.8,0-1.5-0.2-2.1-0.6s-1.1-0.9-1.5-1.7c-0.4-0.7-0.6-1.5-0.6-2.3
		s0.2-1.6,0.5-2.3c0.4-0.7,0.8-1.3,1.5-1.7c0.6-0.4,1.3-0.6,2.1-0.6c1,0,1.9,0.4,2.5,1.1c0.6,0.7,0.9,1.9,0.9,3.4v0.3h-6
		c0,0.6,0.1,1.2,0.4,1.7c0.3,0.5,0.6,0.9,1,1.1c0.4,0.3,0.9,0.4,1.4,0.4c0.9,0,2-0.3,3.1-0.9L59.2,20.7L59.2,20.7z M53.3,16.1h4.4
		v-0.2c0-0.7-0.2-1.3-0.5-1.7s-0.8-0.6-1.4-0.6c-0.6,0-1.1,0.2-1.5,0.6C53.8,14.6,53.5,15.2,53.3,16.1z"/>
	<path class="st0" d="M63.5,21.3v-6.8h-1.9v-1.2h1.9v-0.4c0-1.1,0.1-2,0.4-2.6s0.7-1,1.2-1.4s1.3-0.5,2.2-0.5c0.7,0,1.4,0.1,2.1,0.2
		V10c-0.8-0.2-1.4-0.4-2-0.4c-0.5,0-0.9,0.1-1.2,0.3c-0.4,0.2-0.6,0.5-0.8,0.8c-0.2,0.4-0.3,1-0.3,2v0.6h3.5v1.2H65v6.8
		C65,21.3,63.5,21.3,63.5,21.3z"/>
	<path class="st0" d="M78.4,21c-0.7,0.3-1.2,0.5-1.5,0.5c-0.3,0.1-0.6,0.1-0.9,0.1c-0.6,0-1.2-0.1-1.7-0.4c-0.5-0.2-0.9-0.6-1.1-1
		c-0.3-0.5-0.4-1.2-0.4-2.1v-3.5h-2.2v-1.2h2.2V9.8h1.5v3.5h3.9v1.2h-3.9V18c0,0.7,0.1,1.2,0.2,1.5c0.2,0.3,0.4,0.5,0.7,0.6
		c0.3,0.1,0.6,0.2,1,0.2c0.7,0,1.4-0.2,2.2-0.7C78.4,19.6,78.4,21,78.4,21z"/>
</g>
</svg>
