<?xml version="1.0" encoding="utf-8"?>
<!-- Generator: Adobe Illustrator 22.1.0, SVG Export Plug-In . SVG Version: 6.00 Build 0)  -->
<svg version="1.1" id="레이어_1" xmlns="http://www.w3.org/2000/svg" xmlns:xlink="http://www.w3.org/1999/xlink" x="0px"
	 y="0px" viewBox="0 0 126.2 30" style="enable-background:new 0 0 126.2 30;" xml:space="preserve">
<style type="text/css">
	.st0{fill:#FFFFFF;}
</style>
<g>
	<path class="st0" d="M42.7,21.2v-8.7h1.5v1.9c0.5-0.7,1-1.3,1.6-1.6c0.6-0.4,1.2-0.5,2-0.5c0.5,0,1.1,0.1,1.6,0.2v3.1H48v-2
		c-0.2,0-0.4-0.1-0.6-0.1c-0.5,0-1.1,0.2-1.6,0.6c-0.5,0.4-1,1.1-1.5,1.9v5.1h-1.6V21.2z"/>
	<path class="st0" d="M54,21.2v-7.5h-2.4v-1.2h3.9V20h2.4v1.2H54z M53.7,9.3c0-0.3,0.1-0.6,0.3-0.7c0.2-0.2,0.4-0.2,0.6-0.2
		c0.2,0,0.4,0.1,0.6,0.2c0.2,0.2,0.3,0.4,0.3,0.7s-0.1,0.6-0.3,0.7c-0.2,0.2-0.4,0.2-0.6,0.2c-0.2,0-0.4-0.1-0.6-0.2
		C53.9,9.9,53.7,9.6,53.7,9.3z"/>
	<path class="st0" d="M67,19.2c-0.4,0.7-1,1.3-1.6,1.6c-0.6,0.4-1.2,0.6-1.7,0.6c-0.7,0-1.4-0.3-2-0.9s-0.9-1.6-0.9-2.9
		c0-1,0.2-1.9,0.6-2.7c0.4-0.8,0.9-1.4,1.5-1.9s1.4-0.7,2.4-0.7c0.3,0,0.7,0,1.2,0.1c0.1,0,0.2,0,0.4,0h1.5v6.2c0,1.5,0,2.4-0.1,2.7
		c0,0.3-0.1,0.7-0.2,1c-0.2,0.8-0.7,1.4-1.4,1.8c-0.7,0.4-1.6,0.7-2.7,0.7c-1.1,0-2.1-0.3-3.2-0.8v-1.5c0.4,0.3,0.9,0.5,1.5,0.7
		s1.2,0.3,1.7,0.3c0.4,0,0.9-0.1,1.3-0.2s0.7-0.3,1-0.6s0.4-0.6,0.5-0.9c0.1-0.4,0.1-0.8,0.1-1.4v-1.2H67z M67,17.5v-3.7
		c-0.5-0.1-1-0.2-1.4-0.2c-0.9,0-1.6,0.3-2.2,1c-0.6,0.7-0.9,1.6-0.9,2.8c0,0.9,0.2,1.5,0.5,2c0.3,0.4,0.7,0.7,1.1,0.7
		c0.5,0,1-0.2,1.5-0.7S66.5,18.3,67,17.5z"/>
	<path class="st0" d="M70.7,21.2V8.6h1.5v5.8c0.4-0.7,0.9-1.2,1.5-1.6c0.6-0.4,1.2-0.6,1.8-0.6c0.5,0,0.9,0.1,1.4,0.4
		c0.4,0.3,0.7,0.6,0.9,0.9c0.1,0.3,0.2,0.6,0.3,0.9c0,0.3,0.1,0.9,0.1,1.9v4.9h-1.5v-5.1c0-0.8,0-1.4-0.1-1.7s-0.2-0.5-0.4-0.7
		c-0.2-0.2-0.5-0.3-0.7-0.3c-0.5,0-1.1,0.2-1.6,0.7s-1.1,1.1-1.4,1.8V21h-1.8V21.2z"/>
	<path class="st0" d="M87.6,20.8c-0.7,0.3-1.2,0.5-1.5,0.5c-0.3,0.1-0.6,0.1-0.9,0.1c-0.6,0-1.2-0.1-1.7-0.4c-0.5-0.2-0.9-0.6-1.1-1
		c-0.3-0.5-0.4-1.2-0.4-2.1v-3.5h-2.2v-1.2H82V9.7h1.5v3.5h3.9v1.2h-3.9v3.5c0,0.7,0.1,1.2,0.2,1.5c0.2,0.3,0.4,0.5,0.7,0.6
		c0.3,0.1,0.6,0.2,1,0.2c0.7,0,1.4-0.2,2.2-0.7C87.6,19.5,87.6,20.8,87.6,20.8z"/>
	<path class="st0" d="M103.9,21.2v-3.4h-5.2v-1.2l5.2-7.5h1.5v7.5h2.2v1.2h-2.2v3.4H103.9z M103.9,16.6v-5.3l-3.6,5.3H103.9z"/>
	<path class="st0" d="M109.4,14.9V9.1h6.8v1.4h-5.3v3h0.2c1.7,0,3.1,0.4,4,1.1c0.9,0.7,1.4,1.7,1.4,2.9c0,0.8-0.2,1.5-0.6,2.1
		s-0.9,1.1-1.6,1.5s-1.4,0.5-2.2,0.5s-1.8-0.2-3-0.6v-1.6c0.4,0.2,0.9,0.4,1.5,0.6s1.1,0.2,1.5,0.2c0.5,0,0.9-0.1,1.4-0.3
		c0.4-0.2,0.8-0.5,1-1c0.2-0.4,0.4-0.9,0.4-1.3c0-0.8-0.3-1.4-1-1.9s-1.9-0.8-3.6-0.8C110.3,14.9,109.4,14.9,109.4,14.9z"/>
</g>
<path class="st0" d="M11.1,6.6c-0.7,0-1.4,0.6-1.4,1.3s0.6,1.4,1.3,1.4l1.9,0.1L7.2,14c-0.3,0.2-0.5,0.6-0.5,1v1.7v5.1v0.3
	c0,0.7,0.5,1.2,1.2,1.2s1.2-0.5,1.2-1.2v-0.3v-6.2l5.3-4.5v1.7c0,0.7,0.6,1.3,1.3,1.3c0.4,0,0.7-0.1,0.9-0.4
	c0.2-0.2,0.4-0.6,0.4-0.9v-6L11.1,6.6z"/>
</svg>
