<?xml version="1.0" encoding="utf-8"?>
<!-- Generator: Adobe Illustrator 22.1.0, SVG Export Plug-In . SVG Version: 6.00 Build 0)  -->
<svg version="1.1" id="레이어_1" xmlns="http://www.w3.org/2000/svg" xmlns:xlink="http://www.w3.org/1999/xlink" x="0px"
	 y="0px" viewBox="0 0 126.2 30" style="enable-background:new 0 0 126.2 30;" xml:space="preserve">
<style type="text/css">
	.st0{fill:#FFFFFF;}
</style>
<path class="st0" d="M15.1,8.3c-0.5-0.5-1.3-0.6-1.9-0.1c-0.5,0.5-0.6,1.3-0.1,1.9l1.3,1.4h-6c-1.6,0-3,1.3-3,3v6.4
	c0,0.7,0.6,1.2,1.2,1.2c0.7,0,1.2-0.6,1.2-1.2v-6.4C8,14.2,8.2,14,8.5,14h5.9l-1.2,1.2c-0.5,0.5-0.5,1.4,0,1.9
	c0.3,0.3,0.6,0.4,0.9,0.4s0.7-0.1,0.9-0.4l4.3-4.3L15.1,8.3z"/>
<g>
	<path class="st0" d="M42.8,21.2v-8.7h1.5v1.9c0.5-0.7,1-1.3,1.6-1.6c0.6-0.4,1.2-0.5,2-0.5c0.5,0,1.1,0.1,1.6,0.2v3.1H48v-2
		c-0.2,0-0.4-0.1-0.6-0.1c-0.5,0-1.1,0.2-1.6,0.6c-0.5,0.4-1,1.1-1.5,1.9v5.1h-1.5V21.2z"/>
	<path class="st0" d="M54.1,21.2v-7.5h-2.4v-1.2h3.9V20H58v1.2H54.1z M53.9,9.3c0-0.3,0.1-0.6,0.3-0.7c0.2-0.2,0.4-0.2,0.6-0.2
		c0.2,0,0.4,0.1,0.6,0.2c0.2,0.2,0.3,0.4,0.3,0.7s-0.1,0.6-0.3,0.7c-0.2,0.2-0.4,0.2-0.6,0.2c-0.2,0-0.4-0.1-0.6-0.2
		C54,9.9,53.9,9.6,53.9,9.3z"/>
	<path class="st0" d="M67.1,19.2c-0.4,0.7-1,1.3-1.6,1.6c-0.6,0.4-1.2,0.6-1.7,0.6c-0.7,0-1.4-0.3-2-0.9s-0.9-1.6-0.9-2.9
		c0-1,0.2-1.9,0.6-2.7c0.4-0.8,0.9-1.4,1.5-1.9s1.4-0.7,2.4-0.7c0.3,0,0.7,0,1.2,0.1c0.1,0,0.2,0,0.4,0h1.5v6.2c0,1.5,0,2.4-0.1,2.7
		c0,0.3-0.1,0.7-0.2,1c-0.2,0.8-0.7,1.4-1.4,1.8c-0.7,0.4-1.6,0.7-2.7,0.7S62,24.5,60.9,24v-1.5c0.4,0.3,0.9,0.5,1.5,0.7
		s1.2,0.3,1.7,0.3c0.4,0,0.9-0.1,1.3-0.2s0.7-0.3,1-0.6s0.4-0.6,0.5-0.9C67,21.4,67,21,67,20.4L67.1,19.2L67.1,19.2z M67.1,17.5
		v-3.7c-0.5-0.1-1-0.2-1.4-0.2c-0.9,0-1.6,0.3-2.2,1c-0.6,0.7-0.9,1.6-0.9,2.8c0,0.9,0.2,1.5,0.5,2c0.3,0.4,0.7,0.7,1.1,0.7
		c0.5,0,1-0.2,1.5-0.7S66.7,18.3,67.1,17.5z"/>
	<path class="st0" d="M70.9,21.2V8.6h1.5v5.8c0.4-0.7,0.9-1.2,1.5-1.6c0.6-0.4,1.2-0.6,1.8-0.6c0.5,0,0.9,0.1,1.4,0.4
		c0.4,0.3,0.7,0.6,0.9,0.9c0.1,0.3,0.2,0.6,0.3,0.9c0,0.3,0.1,0.9,0.1,1.9v4.9h-1.5v-5.1c0-0.8,0-1.4-0.1-1.7s-0.2-0.5-0.4-0.7
		c-0.2-0.2-0.5-0.3-0.7-0.3c-0.5,0-1.1,0.2-1.6,0.7s-1.1,1.1-1.4,1.8V21h-1.8V21.2z"/>
	<path class="st0" d="M87.8,20.8c-0.7,0.3-1.2,0.5-1.5,0.5c-0.3,0.1-0.6,0.1-0.9,0.1c-0.6,0-1.2-0.1-1.7-0.4c-0.5-0.2-0.9-0.6-1.1-1
		c-0.3-0.5-0.4-1.2-0.4-2.1v-3.5H80v-1.2h2.2V9.7h1.5v3.5h3.9v1.2h-3.9v3.5c0,0.7,0.1,1.2,0.2,1.5c0.2,0.3,0.4,0.5,0.7,0.6
		c0.3,0.1,0.6,0.2,1,0.2c0.7,0,1.4-0.2,2.2-0.7L87.8,20.8L87.8,20.8z"/>
</g>
</svg>
