<?xml version="1.0" encoding="utf-8"?>
<!-- Generator: Adobe Illustrator 22.1.0, SVG Export Plug-In . SVG Version: 6.00 Build 0)  -->
<svg version="1.1" id="레이어_1" xmlns="http://www.w3.org/2000/svg" xmlns:xlink="http://www.w3.org/1999/xlink" x="0px"
	 y="0px" viewBox="0 0 65 26" style="enable-background:new 0 0 65 26;" xml:space="preserve">
<style type="text/css">
	.st0{fill:#FFFFFF;}
	.st1{font-family:'Monaco';}
	.st2{font-size:14px;}
</style>
<g>
	<path class="st0" d="M16.8,19.3l2.7-2.5c0.5-0.5,0.2-1.3-0.5-1.3h-5.5c-0.7,0-1.1,0.9-0.5,1.3l2.7,2.5
		C15.9,19.5,16.4,19.5,16.8,19.3z"/>
	<path class="st0" d="M10.3,19.5h-2v-8.3c0-0.1,0-0.2,0-0.2c0-0.1,0-0.2,0-0.3c0.1-2.3,2.1-4.2,4.4-4.2c2.4,0,4.3,1.8,4.4,4.2
		c0,0.1,0,0.2,0,0.3s0,0.2,0,0.2v6.3h-2v-6.6C15,9.6,14,8.6,12.7,8.6s-2.4,1-2.4,2.3V11v0.2C10.3,11.2,10.3,19.5,10.3,19.5z"/>
</g>
<text transform="matrix(1 0 0 1 37.1001 18.2061)" class="st0 st1 st2">180</text>
<path class="st0" d="M63.6,8.2c-1.1,0-2-0.9-2-2s0.9-2,2-2s2,0.9,2,2S64.7,8.2,63.6,8.2z M63.6,5.1c-0.6,0-1,0.5-1,1s0.5,1,1,1
	s1-0.5,1-1S64.2,5.1,63.6,5.1z"/>
</svg>
