<?xml version="1.0" encoding="utf-8"?>
<!-- Generator: Adobe Illustrator 22.1.0, SVG Export Plug-In . SVG Version: 6.00 Build 0)  -->
<svg version="1.1" id="레이어_1" xmlns="http://www.w3.org/2000/svg" xmlns:xlink="http://www.w3.org/1999/xlink" x="0px"
	 y="0px" viewBox="0 0 220.6 26" style="enable-background:new 0 0 220.6 26;" xml:space="preserve">
<style type="text/css">
	.st0{fill:#FDFEFF;}
	.st1{fill:#FFFFFF;stroke:#FFFFFF;stroke-width:0.2;stroke-miterlimit:10;}
	.st2{font-family:'Monaco';}
	.st3{font-size:14px;}
</style>
<g>
	<g id="레이어_2_1_">
		<g id="right">
			<path class="st0" d="M17.2,15.8l-6.4,0l-2,0v-2h8.4c0.4,0.1,0.4,0.1,0.4,0.2v1.6C17.5,15.8,17.3,15.8,17.2,15.8z"/>
			<g id="right_1_">
				<path class="st0" d="M10.6,21.6H9c-0.1-0.1-0.2-0.1-0.2-0.4V7.4c0-0.1,0-0.3,0.2-0.4l1.6,0.1c0.1-0.1,0.1,0,0.1,0.3v6.4l0,2
					l0,5.4C10.8,21.4,10.7,21.8,10.6,21.6z"/>
			</g>
		</g>
	</g>
	<path class="st0" d="M20.2,14.3l-3-3.3c-0.6-0.6-1.6-0.2-1.6,0.6v6.6c0,0.8,1.1,1.3,1.6,0.6l3-3.3C20.5,15.2,20.5,14.6,20.2,14.3z"
		/>
	<path class="st0" d="M10.5,4.6l3.3,3c0.6,0.6,0.2,1.6-0.6,1.6H6.5c-0.8,0-1.3-1.1-0.6-1.6l3.3-3C9.6,4.2,10.1,4.2,10.5,4.6z"/>
</g>
<text transform="matrix(1 0 0 1 36.1001 18.2061)" class="st1 st2 st3">ahead and to the right</text>
</svg>
