<?xml version="1.0" encoding="utf-8"?>
<!-- Generator: Adobe Illustrator 22.1.0, SVG Export Plug-In . SVG Version: 6.00 Build 0)  -->
<svg version="1.1" id="레이어_1" xmlns="http://www.w3.org/2000/svg" xmlns:xlink="http://www.w3.org/1999/xlink" x="0px"
	 y="0px" viewBox="0 0 84 26" style="enable-background:new 0 0 84 26;" xml:space="preserve">
<style type="text/css">
	.st0{fill:#FDFEFF;}
	.st1{fill:#FFFFFF;stroke:#FFFFFF;stroke-width:0.2;stroke-miterlimit:10;}
	.st2{font-family:'Monaco';}
	.st3{font-size:14px;}
</style>
<g>
	<path class="st0" d="M16.3,8.6v11.3c0,0.2-0.1,0.3-0.3,0.3h-2c-0.2,0-0.3-0.1-0.3-0.3V8.6c0-0.2,0.1-0.3,0.3-0.3h2
		C16.1,8.3,16.3,8.4,16.3,8.6z"/>
	<path class="st0" d="M14.3,6.1L11,9.2c-0.6,0.6-0.2,1.7,0.7,1.7h6.6c0.9,0,1.3-1.1,0.7-1.7l-3.3-3.1C15.3,5.8,14.7,5.8,14.3,6.1z"
		/>
</g>
<text transform="matrix(1 0 0 1 36.1001 18.2061)" class="st1 st2 st3">ahead</text>
</svg>
