<?xml version="1.0" encoding="utf-8"?>
<!-- Generator: Adobe Illustrator 22.1.0, SVG Export Plug-In . SVG Version: 6.00 Build 0)  -->
<svg version="1.1" id="레이어_1" xmlns="http://www.w3.org/2000/svg" xmlns:xlink="http://www.w3.org/1999/xlink" x="0px"
	 y="0px" viewBox="0 0 270.3 26" style="enable-background:new 0 0 270.3 26;" xml:space="preserve">
<style type="text/css">
	.st0{fill:#FDFEFF;}
	.st1{fill:#FFFFFF;stroke:#FFFFFF;stroke-width:0.2;stroke-miterlimit:10;}
	.st2{font-family:'Monaco';}
	.st3{font-size:14px;}
</style>
<g>
	<g>
		<path class="st0" d="M4.4,13.6l3,3.3C7.9,17.6,9,17.1,9,16.3V9.7c0-0.8-1-1.2-1.6-0.6l-3,3.3C4.1,12.7,4.1,13.3,4.4,13.6z"/>
		<path class="st0" d="M21.6,12.4l-3-3.3C18,8.5,17,8.9,17,9.7v6.6c0,0.8,1.1,1.3,1.6,0.6l3-3.3C21.9,13.3,21.9,12.7,21.6,12.4z"/>
		<path class="st0" d="M17.5,12H7.9c-0.2,0-0.2,0.1-0.2,0.2v1.6C7.7,14,7.8,14,7.9,14h9.6c0.2,0,0.2-0.1,0.2-0.2v-1.6
			C17.8,12.1,17.6,12,17.5,12z"/>
	</g>
</g>
<text transform="matrix(1 0 0 1 36.1001 18.2061)" class="st1 st2 st3">to the right and to the left</text>
</svg>
