<?xml version="1.0" encoding="utf-8"?>
<!-- Generator: Adobe Illustrator 22.1.0, SVG Export Plug-In . SVG Version: 6.00 Build 0)  -->
<svg version="1.1" id="레이어_1" xmlns="http://www.w3.org/2000/svg" xmlns:xlink="http://www.w3.org/1999/xlink" x="0px"
	 y="0px" viewBox="0 0 70.2 26" style="enable-background:new 0 0 70.2 26;" xml:space="preserve">
<style type="text/css">
	.st0{display:none;}
	.st1{display:inline;fill:#FFFFFF;}
	.st2{display:inline;fill:#FDFEFF;}
	.st3{fill:#FDFEFF;}
	.st4{fill:#FFFFFF;stroke:#FFFFFF;stroke-width:0.2;stroke-miterlimit:10;}
	.st5{font-family:'Monaco';}
	.st6{font-size:14px;}
</style>
<g id="레이어_2_1_">
	<g id="ahead" class="st0">
		<path class="st1" d="M12.1,6.7h1.6c0.1,0,0.2,0,0.2,0.2v12.2c0,0.1,0,0.2-0.2,0.2h-1.6c-0.1,0-0.2,0-0.2-0.2V6.9
			C11.9,6.8,12.1,6.8,12.1,6.7z"/>
		<path class="st1" d="M12.6,7.8l1.1-1.1c0.1-0.1,0.2-0.1,0.3,0l4.2,4.4c0.1,0.1,0.1,0.2,0,0.3l-1.1,1.1c-0.1,0.1-0.2,0.1-0.3,0
			l-4.3-4.3C12.5,8.1,12.5,7.9,12.6,7.8z"/>
		<path class="st1" d="M13.4,7.8l-1.1-1.1c-0.1-0.1-0.2-0.1-0.3,0l-4.2,4.4c-0.1,0.1-0.1,0.2,0,0.3l1.1,1.1c0.1,0.1,0.2,0.1,0.3,0
			l4.3-4.3C13.5,8.1,13.5,7.9,13.4,7.8z"/>
	</g>
	<g id="left" class="st0">
		<path class="st2" d="M19.2,10.2v1.6c0,0.1,0,0.2-0.2,0.2H6.8c-0.1,0-0.2,0-0.2-0.2v-1.6c0-0.1,0-0.2,0.2-0.2H19
			C19.1,10,19.2,10,19.2,10.2z"/>
		<path class="st2" d="M8.5,20H6.9c-0.1,0-0.2,0-0.2-0.2v-9.6c0-0.1,0-0.2,0.2-0.2h1.6c0.1,0,0.2,0,0.2,0.2v9.6
			C8.7,19.9,8.6,20.1,8.5,20z"/>
		<path class="st2" d="M18.2,10.2l1.1,1.1c0.1,0.1,0.1,0.2,0,0.3L15,15.9c-0.1,0.1-0.2,0.1-0.3,0l-1.1-1.1c-0.1-0.1-0.1-0.2,0-0.3
			l4.3-4.3C17.9,10.1,18.1,10.1,18.2,10.2z"/>
		<path class="st2" d="M18.2,11.7l1.1-1.1c0.1-0.1,0.1-0.2,0-0.3L15,6c-0.1-0.1-0.2-0.1-0.3,0l-1.1,1.1c-0.1,0.1-0.1,0.2,0,0.3
			l4.3,4.3C17.9,11.8,18.1,11.8,18.2,11.7z"/>
	</g>
	<g id="right">
		<path class="st3" d="M9.9,10.2v1.6c0,0.1,0,0.2,0.2,0.2h9.2c0.2,0,0.2,0,0.2-0.2v-1.6c0-0.1,0-0.2-0.2-0.2H10
			C9.9,10,9.9,10,9.9,10.2z"/>
		<path class="st3" d="M17.5,20h1.6c0.1,0,0.2,0,0.2-0.2v-9.6c0-0.1,0-0.2-0.2-0.2h-1.6c-0.1,0-0.2,0-0.2,0.2v9.6
			C17.3,19.9,17.4,20.1,17.5,20z"/>
		<path class="st3" d="M6.9,10.3L10,7c0.6-0.6,1.7-0.2,1.7,0.7v6.6c0,0.9-1.1,1.3-1.7,0.7l-3.1-3.3C6.6,11.3,6.6,10.7,6.9,10.3z"/>
	</g>
</g>
<text transform="matrix(1 0 0 1 36.1001 18.2061)" class="st4 st5 st6">left</text>
</svg>
