<?xml version="1.0" encoding="utf-8"?>
<!-- Generator: Adobe Illustrator 22.1.0, SVG Export Plug-In . SVG Version: 6.00 Build 0)  -->
<svg version="1.1" id="레이어_1" xmlns="http://www.w3.org/2000/svg" xmlns:xlink="http://www.w3.org/1999/xlink" x="0px"
	 y="0px" viewBox="0 0 60 26" style="enable-background:new 0 0 60 26;" xml:space="preserve">
<style type="text/css">
	.st0{fill:#FDFEFF;}
	.st1{fill:none;stroke:#FFFFFF;stroke-width:0.2;stroke-miterlimit:10;}
	.st2{font-family:'Monaco';}
	.st3{font-size:13.5px;}
	.st4{fill:#FFFFFF;}
</style>
<g id="레이어_2_1_">
	<g id="right">
		<g>
			<path class="st0" d="M16.6,20h1.6c0.1,0,0.2,0,0.2-0.1v-6.6c0-0.1,0-0.1-0.2-0.1h-1.6c-0.1,0-0.2,0-0.2,0.1v6.6
				C16.4,20,16.5,20.1,16.6,20z"/>
			<g>
				<path class="st0" d="M13,8.1l-1.1,1.1c-0.1,0.1-0.1,0.1-0.1,0.2l5.1,5.1c0.1,0.1,0.1,0.1,0.2-0.1l1.1-1.1
					c0.1-0.1,0.1-0.1,0.1-0.2L13.2,8C13.1,8,13.1,7.9,13,8.1z"/>
				<path class="st0" d="M10.8,6.1l4.5-0.2c0.9,0,1.3,1,0.7,1.6l-4.7,4.7c-0.6,0.6-1.7,0.2-1.6-0.7L9.9,7C9.9,6.6,10.3,6.2,10.8,6.1
					z"/>
			</g>
		</g>
	</g>
</g>
<text transform="matrix(1 0 0 1 38.7896 18.2061)" class="st1 st2 st3">45</text>
<path class="st4" d="M57.3,8.2c-1.1,0-2-0.9-2-2s0.9-2,2-2s2,0.9,2,2S58.4,8.2,57.3,8.2z M57.3,5.1c-0.6,0-1,0.5-1,1s0.5,1,1,1
	s1-0.5,1-1S57.8,5.1,57.3,5.1z"/>
<text transform="matrix(1 0 0 1 38.7896 18.2061)" class="st4 st2 st3">45</text>
</svg>
