<?xml version="1.0" encoding="utf-8"?>
<!-- Generator: Adobe Illustrator 22.1.0, SVG Export Plug-In . SVG Version: 6.00 Build 0)  -->
<svg version="1.1" id="레이어_1" xmlns="http://www.w3.org/2000/svg" xmlns:xlink="http://www.w3.org/1999/xlink" x="0px"
	 y="0px" viewBox="0 0 218.9 26" style="enable-background:new 0 0 218.9 26;" xml:space="preserve">
<style type="text/css">
	.st0{fill:#FDFEFF;}
	.st1{fill:#FFFFFF;stroke:#FFFFFF;stroke-width:0.2;stroke-miterlimit:10;}
	.st2{font-family:'Monaco';}
	.st3{font-size:14px;}
</style>
<g>
	<g id="레이어_2_1_">
		<g id="right">
			<path class="st0" d="M8.4,15.6V14c0-0.1,0-0.1,0.4-0.2h8.4v2h-2H8.8C8.7,15.8,8.5,15.8,8.4,15.6z"/>
			<g id="right_1_">
				<path class="st0" d="M15.3,21.2v-5.4v-2V7.4c0-0.3,0-0.4,0.1-0.3L17,7c0.2,0.1,0.2,0.3,0.2,0.4v13.8c0,0.3-0.1,0.3-0.2,0.4h-1.6
					C15.3,21.8,15.2,21.4,15.3,21.2z"/>
			</g>
		</g>
	</g>
	<path class="st0" d="M5.8,15.5l3,3.3c0.5,0.7,1.6,0.2,1.6-0.6v-6.6c0-0.8-1-1.2-1.6-0.6l-3,3.3C5.5,14.6,5.5,15.2,5.8,15.5z"/>
	<path class="st0" d="M16.8,4.6l3.3,3c0.7,0.5,0.2,1.6-0.6,1.6h-6.7c-0.8,0-1.2-1-0.6-1.6l3.3-3C15.9,4.2,16.4,4.2,16.8,4.6z"/>
</g>
<text transform="matrix(1 0 0 1 36.1001 18.2061)" class="st1 st2 st3">ahead and to the left</text>
</svg>
