<?xml version="1.0" encoding="utf-8"?>
<!-- Generator: Adobe Illustrator 22.1.0, SVG Export Plug-In . SVG Version: 6.00 Build 0)  -->
<svg version="1.1" id="레이어_1" xmlns="http://www.w3.org/2000/svg" xmlns:xlink="http://www.w3.org/1999/xlink" x="0px"
	 y="0px" viewBox="0 0 60 26" style="enable-background:new 0 0 60 26;" xml:space="preserve">
<style type="text/css">
	.st0{display:none;}
	.st1{display:inline;fill:#FFFFFF;}
	.st2{display:inline;fill:#FDFEFF;}
	.st3{fill:#FDFEFF;}
	.st4{fill:none;stroke:#FFFFFF;stroke-width:0.2;stroke-miterlimit:10;}
	.st5{font-family:'Monaco';}
	.st6{font-size:13.5px;}
	.st7{fill:#FFFFFF;}
</style>
<g id="레이어_2_1_">
	<g id="ahead" class="st0">
		<path class="st1" d="M13.1,6.7h1.6c0.1,0,0.2,0,0.2,0.2v12.2c0,0.1,0,0.2-0.2,0.2h-1.6c-0.1,0-0.2,0-0.2-0.2V6.9
			C12.9,6.8,13.1,6.8,13.1,6.7z"/>
		<path class="st1" d="M13.6,7.8l1.1-1.1c0.1-0.1,0.2-0.1,0.3,0l4.2,4.4c0.1,0.1,0.1,0.2,0,0.3l-1.1,1.1c-0.1,0.1-0.2,0.1-0.3,0
			l-4.3-4.3C13.5,8.1,13.5,7.9,13.6,7.8z"/>
		<path class="st1" d="M14.4,7.8l-1.1-1.1c-0.1-0.1-0.2-0.1-0.3,0l-4.2,4.4c-0.1,0.1-0.1,0.2,0,0.3l1.1,1.1c0.1,0.1,0.2,0.1,0.3,0
			l4.3-4.3C14.5,8.1,14.5,7.9,14.4,7.8z"/>
	</g>
	<g id="left" class="st0">
		<path class="st2" d="M20.2,10.2v1.6c0,0.1,0,0.2-0.2,0.2H7.8c-0.1,0-0.2,0-0.2-0.2v-1.6c0-0.1,0-0.2,0.2-0.2H20
			C20.1,10,20.2,10,20.2,10.2z"/>
		<path class="st2" d="M9.5,20H7.9c-0.1,0-0.2,0-0.2-0.2v-9.6c0-0.1,0-0.2,0.2-0.2h1.6c0.1,0,0.2,0,0.2,0.2v9.6
			C9.7,19.9,9.6,20.1,9.5,20z"/>
		<path class="st2" d="M19.2,10.2l1.1,1.1c0.1,0.1,0.1,0.2,0,0.3L16,15.9c-0.1,0.1-0.2,0.1-0.3,0l-1.1-1.1c-0.1-0.1-0.1-0.2,0-0.3
			l4.3-4.3C18.9,10.1,19.1,10.1,19.2,10.2z"/>
		<path class="st2" d="M19.2,11.7l1.1-1.1c0.1-0.1,0.1-0.2,0-0.3L16,6c-0.1-0.1-0.2-0.1-0.3,0l-1.1,1.1c-0.1,0.1-0.1,0.2,0,0.3
			l4.3,4.3C18.9,11.8,19.1,11.8,19.2,11.7z"/>
	</g>
	<g id="right">
		<path class="st3" d="M10.9,10.2v1.6c0,0.1,0,0.2,0.2,0.2h9.2c0.2,0,0.2,0,0.2-0.2v-1.6c0-0.1,0-0.2-0.2-0.2H11
			C10.9,10,10.9,10,10.9,10.2z"/>
		<path class="st3" d="M18.5,20h1.6c0.1,0,0.2,0,0.2-0.2v-9.6c0-0.1,0-0.2-0.2-0.2h-1.6c-0.1,0-0.2,0-0.2,0.2v9.6
			C18.3,19.9,18.4,20.1,18.5,20z"/>
		<path class="st3" d="M7.9,10.3L11,7c0.6-0.6,1.7-0.2,1.7,0.7v6.6c0,0.9-1.1,1.3-1.7,0.7l-3.1-3.3C7.6,11.3,7.6,10.7,7.9,10.3z"/>
	</g>
</g>
<text transform="matrix(1 0 0 1 38.7896 18.2061)" class="st4 st5 st6">90</text>
<path class="st7" d="M57.3,8.2c-1.1,0-2-0.9-2-2s0.9-2,2-2s2,0.9,2,2S58.4,8.2,57.3,8.2z M57.3,5.1c-0.6,0-1,0.5-1,1s0.5,1,1,1
	s1-0.5,1-1S57.8,5.1,57.3,5.1z"/>
<g id="레이어_1_1_">
	<text transform="matrix(1 0 0 1 38.7896 18.2061)" class="st7 st5 st6">90</text>
</g>
</svg>
