<?xml version="1.0" encoding="utf-8"?>
<!-- Generator: Adobe Illustrator 22.1.0, SVG Export Plug-In . SVG Version: 6.00 Build 0)  -->
<svg version="1.1" id="레이어_1" xmlns="http://www.w3.org/2000/svg" xmlns:xlink="http://www.w3.org/1999/xlink" x="0px"
	 y="0px" viewBox="0 0 60 26" style="enable-background:new 0 0 60 26;" xml:space="preserve">
<style type="text/css">
	.st0{fill:#FFFFFF;}
	.st1{font-family:'Monaco';}
	.st2{font-size:13.5px;}
	.st3{display:none;}
	.st4{display:inline;fill:#FFFFFF;}
	.st5{display:inline;fill:#FDFEFF;}
	.st6{fill:#FDFEFF;}
</style>
<g id="레이어_1_1_">
	<text transform="matrix(1 0 0 1 38.7395 18.2061)" class="st0 st1 st2">90</text>
</g>
<g id="레이어_2_1_">
	<g id="ahead" class="st3">
		<path class="st4" d="M15.1,6.9v12.2c0,0.2-0.1,0.2-0.2,0.2h-1.6c-0.2,0-0.2-0.1-0.2-0.2V6.9c0-0.2,0.1-0.2,0.2-0.2h1.6
			C14.9,6.8,15.1,6.8,15.1,6.9z"/>
		<path class="st4" d="M14.5,8.2l-4.3,4.3c-0.1,0.1-0.2,0.1-0.3,0l-1.1-1.1c-0.1-0.1-0.1-0.2,0-0.3L13,6.7c0.1-0.1,0.2-0.1,0.3,0
			l1.1,1.1C14.5,7.9,14.5,8.1,14.5,8.2z"/>
		<path class="st4" d="M13.5,8.2l4.3,4.3c0.1,0.1,0.2,0.1,0.3,0l1.1-1.1c0.1-0.1,0.1-0.2,0-0.3L15,6.7c-0.1-0.1-0.2-0.1-0.3,0
			l-1.1,1.1C13.5,7.9,13.5,8.1,13.5,8.2z"/>
	</g>
	<g id="left" class="st3">
		<path class="st5" d="M8,10h12.2c0.2,0,0.2,0.1,0.2,0.2v1.6c0,0.2-0.1,0.2-0.2,0.2H8c-0.2,0-0.2-0.1-0.2-0.2v-1.6
			C7.8,10,7.9,10,8,10z"/>
		<path class="st5" d="M18.3,19.8v-9.6c0-0.2,0.1-0.2,0.2-0.2h1.6c0.2,0,0.2,0.1,0.2,0.2v9.6c0,0.2-0.1,0.2-0.2,0.2h-1.6
			C18.4,20.1,18.3,19.9,18.3,19.8z"/>
		<path class="st5" d="M9.1,10.2l4.3,4.3c0.1,0.1,0.1,0.2,0,0.3l-1.1,1.1c-0.1,0.1-0.2,0.1-0.3,0l-4.3-4.3c-0.1-0.1-0.1-0.2,0-0.3
			l1.1-1.1C8.9,10.1,9.1,10.1,9.1,10.2z"/>
		<path class="st5" d="M9.1,11.7l4.3-4.3c0.1-0.1,0.1-0.2,0-0.3L12.3,6c-0.1-0.1-0.2-0.1-0.3,0l-4.3,4.3c-0.1,0.1-0.1,0.2,0,0.3
			l1.1,1.1C8.9,11.8,9.1,11.8,9.1,11.7z"/>
	</g>
	<g id="right">
		<path class="st6" d="M17,10H7.9c-0.2,0-0.2,0.1-0.2,0.2v1.6c0,0.2,0,0.2,0.2,0.2H17c0.2,0,0.2-0.1,0.2-0.2v-1.6
			C17.2,10,17.1,10,17,10z"/>
		<path class="st6" d="M9.7,19.8v-9.6C9.7,10,9.6,10,9.5,10H7.9c-0.2,0-0.2,0.1-0.2,0.2v9.6C7.7,20,7.8,20,7.9,20h1.6
			C9.6,20.1,9.7,19.9,9.7,19.8z"/>
		<path class="st6" d="M20.1,10.3L17,7c-0.6-0.6-1.7-0.2-1.7,0.7v6.6c0,0.9,1.1,1.3,1.7,0.7l3.1-3.3C20.4,11.3,20.4,10.7,20.1,10.3z
			"/>
	</g>
</g>
<path class="st0" d="M57.2,8.2c-1.1,0-2-0.9-2-2s0.9-2,2-2s2,0.9,2,2S58.3,8.2,57.2,8.2z M57.2,5.1c-0.6,0-1,0.5-1,1s0.5,1,1,1
	s1-0.5,1-1S57.8,5.1,57.2,5.1z"/>
</svg>
