<?xml version="1.0" encoding="utf-8"?>
<!-- Generator: Adobe Illustrator 22.1.0, SVG Export Plug-In . SVG Version: 6.00 Build 0)  -->
<svg version="1.1" id="레이어_1" xmlns="http://www.w3.org/2000/svg" xmlns:xlink="http://www.w3.org/1999/xlink" x="0px"
	 y="0px" viewBox="0 0 60 26" style="enable-background:new 0 0 60 26;" xml:space="preserve">
<style type="text/css">
	.st0{fill:#FDFEFF;}
	.st1{fill:#FFFFFF;}
	.st2{font-family:'Monaco';}
	.st3{font-size:13.5px;}
</style>
<g id="레이어_2_1_">
	<g id="right">
		<g>
			<path class="st0" d="M11.7,19.9v-6.6c0-0.1-0.1-0.1-0.2-0.1H9.9c-0.2,0-0.2,0.1-0.2,0.1v6.6C9.7,20,9.8,20,9.9,20h1.6
				C11.6,20.1,11.7,20,11.7,19.9z"/>
			<g>
				<path class="st0" d="M14.8,8l-5.1,5.1c-0.1,0.1,0,0.2,0.1,0.2l1.1,1.1c0.1,0.1,0.1,0.1,0.2,0.1l5.1-5.1c0.1-0.1,0-0.2-0.1-0.2
					L15,8.1C14.9,7.9,14.9,8,14.8,8z"/>
				<path class="st0" d="M17.2,6.1l-4.5-0.2c-0.9,0-1.3,1-0.7,1.6l4.7,4.7c0.6,0.6,1.7,0.2,1.6-0.7L18.1,7
					C18.1,6.6,17.7,6.2,17.2,6.1z"/>
			</g>
		</g>
	</g>
</g>
<text transform="matrix(1 0 0 1 38.7395 18.2061)" class="st1 st2 st3">45</text>
<path class="st1" d="M57.2,8.2c-1.1,0-2-0.9-2-2s0.9-2,2-2s2,0.9,2,2S58.3,8.2,57.2,8.2z M57.2,5.1c-0.6,0-1,0.5-1,1s0.5,1,1,1
	s1-0.5,1-1S57.8,5.1,57.2,5.1z"/>
</svg>
