<?xml version="1.0" encoding="utf-8"?>
<!-- Generator: Adobe Illustrator 22.1.0, SVG Export Plug-In . SVG Version: 6.00 Build 0)  -->
<svg version="1.1" id="레이어_1" xmlns="http://www.w3.org/2000/svg" xmlns:xlink="http://www.w3.org/1999/xlink" x="0px"
	 y="0px" viewBox="0 0 140.6 26" style="enable-background:new 0 0 140.6 26;" xml:space="preserve">
<style type="text/css">
	.st0{display:none;}
	.st1{display:inline;fill:#FFFFFF;}
	.st2{display:inline;fill:#FDFEFF;}
	.st3{fill:#FDFEFF;}
	.st4{fill:#FFFFFF;stroke:#FFFFFF;stroke-width:0.2;stroke-miterlimit:10;}
	.st5{font-family:'Monaco';}
	.st6{font-size:14px;}
</style>
<g id="레이어_2_1_">
	<g id="ahead" class="st0">
		<path class="st1" d="M14.1,6.9v12.2c0,0.2-0.1,0.2-0.2,0.2h-1.6c-0.2,0-0.2-0.1-0.2-0.2V6.9c0-0.2,0.1-0.2,0.2-0.2h1.6
			C13.9,6.8,14.1,6.8,14.1,6.9z"/>
		<path class="st1" d="M13.5,8.2l-4.3,4.3c-0.1,0.1-0.2,0.1-0.3,0l-1.1-1.1c-0.1-0.1-0.1-0.2,0-0.3L12,6.7c0.1-0.1,0.2-0.1,0.3,0
			l1.1,1.1C13.5,7.9,13.5,8.1,13.5,8.2z"/>
		<path class="st1" d="M12.5,8.2l4.3,4.3c0.1,0.1,0.2,0.1,0.3,0l1.1-1.1c0.1-0.1,0.1-0.2,0-0.3L14,6.7c-0.1-0.1-0.2-0.1-0.3,0
			l-1.1,1.1C12.5,7.9,12.5,8.1,12.5,8.2z"/>
	</g>
	<g id="left" class="st0">
		<path class="st2" d="M7,10h12.2c0.2,0,0.2,0.1,0.2,0.2v1.6c0,0.2-0.1,0.2-0.2,0.2H7c-0.2,0-0.2-0.1-0.2-0.2v-1.6
			C6.8,10,6.9,10,7,10z"/>
		<path class="st2" d="M17.3,19.8v-9.6c0-0.2,0.1-0.2,0.2-0.2h1.6c0.2,0,0.2,0.1,0.2,0.2v9.6c0,0.2-0.1,0.2-0.2,0.2h-1.6
			C17.4,20.1,17.3,19.9,17.3,19.8z"/>
		<path class="st2" d="M8.1,10.2l4.3,4.3c0.1,0.1,0.1,0.2,0,0.3l-1.1,1.1c-0.1,0.1-0.2,0.1-0.3,0l-4.3-4.3c-0.1-0.1-0.1-0.2,0-0.3
			l1.1-1.1C7.9,10.1,8.1,10.1,8.1,10.2z"/>
		<path class="st2" d="M8.1,11.7l4.3-4.3c0.1-0.1,0.1-0.2,0-0.3L11.3,6c-0.1-0.1-0.2-0.1-0.3,0l-4.3,4.3c-0.1,0.1-0.1,0.2,0,0.3
			l1.1,1.1C7.9,11.8,8.1,11.8,8.1,11.7z"/>
	</g>
	<g id="right">
		<path class="st3" d="M16,10H6.9c-0.2,0-0.2,0.1-0.2,0.2v1.6c0,0.2,0,0.2,0.2,0.2H16c0.2,0,0.2-0.1,0.2-0.2v-1.6
			C16.2,10,16.1,10,16,10z"/>
		<path class="st3" d="M8.7,19.8v-9.6C8.7,10,8.6,10,8.5,10H6.9c-0.2,0-0.2,0.1-0.2,0.2v9.6C6.7,20,6.8,20,6.9,20h1.6
			C8.6,20.1,8.7,19.9,8.7,19.8z"/>
		<path class="st3" d="M19.1,10.3L16,7c-0.6-0.6-1.7-0.2-1.7,0.7v6.6c0,0.9,1.1,1.3,1.7,0.7l3.1-3.3C19.4,11.3,19.4,10.7,19.1,10.3z
			"/>
	</g>
</g>
<text transform="matrix(1 0 0 1 36.1001 18.2061)" class="st4 st5 st6">to the right</text>
</svg>
